<svg version="1.1" id="Layer_1" xmlns="http://www.w3.org/2000/svg" xmlns:xlink="http://www.w3.org/1999/xlink" x="0px" y="0px" viewBox="462 -786.7 1024 1672.7" style="enable-background:new 462 -786.7 1024 1672.7;" xml:space="preserve">
<style type="text/css">
	.st0{fill:#B9B8BE;}
	.st1{fill:#F27154;}
	.st2{fill:#4F8ECB;}
	.st3{fill:#FCD049;}
	.st4{fill:#7F6A2A;}
	.st5{opacity:0.5;}
	.st6{fill:#BE9B36;}
	.st7{fill:#BD9B36;}
	.st8{fill:#7F6B2A;}
	.st9{fill:#F4F4F9;}
	.st10{fill:#B9B8BD;}
	.st11{fill:#3F3F40;}
	.st12{fill:#2A2A2A;}
	.st13{fill:#F6F5FA;}
	.st14{opacity:0.5;fill:#B9B8BE;enable-background:new    ;}
	.st15{fill:#BB9935;}
	.st16{fill:#74382F;}
</style>
<g>
	<circle class="st0" cx="699.8" cy="-414.9" r="11.6"></circle>
</g>
<g>
	<circle class="st1" cx="529.1" cy="-184.8" r="17"></circle>
</g>
<g>
	<path class="st2" d="M945.4-631.8c-6.8,4.9-15.1,7.3-23.6,6.7c-9.6-0.7-18.3-5.1-24.6-12.3c-2.1-2.5-1.9-6.2,0.6-8.3
		c2.4-2.1,6.2-1.9,8.3,0.6c4.2,4.9,10.1,7.8,16.5,8.3s12.7-1.6,17.5-5.8c10.1-8.7,11.2-24,2.5-34.1c-2.1-2.5-1.9-6.2,0.6-8.3
		c2.5-2.1,6.2-1.9,8.3,0.6c13,15,11.3,37.7-3.7,50.6C947.1-633.1,946.3-632.4,945.4-631.8z"></path>
</g>
<g>
	<path class="st1" d="M1416.9-499.5c7.6,3.7,13.6,9.8,17,17.6c3.9,8.8,4.2,18.5,0.8,27.5c-1.2,3-4.6,4.6-7.6,3.4s-4.6-4.6-3.4-7.6
		c2.3-6,2.1-12.6-0.5-18.5c-2.6-5.9-7.4-10.4-13.4-12.7c-12.4-4.7-26.4,1.5-31.2,14c-1.2,3-4.6,4.6-7.6,3.4s-4.6-4.6-3.4-7.6
		c7.1-18.5,27.8-27.8,46.3-20.7C1414.9-500.4,1415.9-500,1416.9-499.5z"></path>
</g>
<g>
	<g>
		<path class="st1" d="M524.9-542.4c0-1.4,0.5-2.8,1.6-3.9c2.2-2.2,5.7-2.2,7.8,0l36.8,36.8c2.2,2.2,2.2,5.7,0,7.8
			c-2.2,2.2-5.7,2.2-7.8,0l-36.8-36.8C525.5-539.5,524.9-541,524.9-542.4z"></path>
	</g>
</g>
<g>
	<g>
		<polygon class="st3" points="1320.7,-653.7 1306.2,-633.3 1306.2,-633.3 1335.4,-633.5 		"></polygon>
	</g>
</g>
<g>
	<circle class="st0" cx="655" cy="-700.1" r="8.8"></circle>
</g>
<g>
	<circle class="st4" cx="551.9" cy="-594.4" r="8.8"></circle>
</g>
<g>
	<circle class="st0" cx="568.5" cy="118.8" r="8.8"></circle>
</g>
<g>
	<g class="st5">
		<circle class="st0" cx="712.4" cy="-620.5" r="18.8"></circle>
	</g>
</g>
<g>
	<circle class="st0" cx="612.4" cy="405.5" r="8.8"></circle>
</g>
<g>
	<g class="st5">
		<circle class="st0" cx="669.9" cy="485.1" r="18.8"></circle>
	</g>
</g>
<g>
	<g>
		<polygon class="st0" points="557.4,-703 548.8,-690.9 548.8,-690.9 566.2,-691 		"></polygon>
	</g>
</g>
<g>
	<circle class="st6" cx="599.5" cy="-401.8" r="8.8"></circle>
</g>
<g>
	<polygon class="st2" points="648.4,-324.4 498.9,-275.1 537.5,-157.6 687.2,-206.9 	"></polygon>
	
		<rect x="528.1" y="-216.4" transform="matrix(-0.95 0.3124 -0.3124 -0.95 1121.34 -577.4404)" class="st7" width="157.6" height="35"></rect>
	<path class="st8" d="M537.5-157.4l-7.8-23.8c0,0,41.8-13.2,72.7-14.4c44.7-1.7,83.1-16.2,83.1-16.2l1.7,5.2L537.5-157.4z"></path>
	<polygon class="st9" points="579.7,-208.4 575.4,-221.5 584.5,-232.5 598.6,-229.9 603.1,-216.1 	"></polygon>
	
		<rect x="600.1" y="-234.3" transform="matrix(0.95 -0.3124 0.3124 0.95 101.5818 180.1154)" class="st10" width="25.6" height="14.6"></rect>
	
		<rect x="586.9" y="-220.3" transform="matrix(-0.95 0.3124 -0.3124 -0.95 1082.8981 -605.7781)" class="st11" width="6.1" height="8.3"></rect>
	<path class="st12" d="M622.8-237.9l-14-2.5l-24.3,7.9l14.1,2.6L622.8-237.9z"></path>
	<circle class="st13" cx="569" cy="-254.3" r="8.8"></circle>
</g>
<g>
	<circle class="st14" cx="730.6" cy="-230.5" r="8.8"></circle>
</g>
<g>
	<g class="st5">
		<circle class="st0" cx="760" cy="-427.9" r="18.8"></circle>
	</g>
</g>
<g>
	<g class="st5">
		<polygon class="st0" points="702.5,-290.3 693.9,-278.2 693.9,-278.2 711.3,-278.3 		"></polygon>
	</g>
</g>
<g>
	<polygon class="st6" points="605,209 596.4,221.1 596.4,221.1 613.8,221 	"></polygon>
</g>
<g>
	<g>
		<path class="st1" d="M1424.5,218.1c0-1.4,0.5-2.8,1.6-3.9c2.2-2.2,5.7-2.2,7.8,0l36.8,36.8c2.2,2.2,2.2,5.7,0,7.8
			c-2.2,2.2-5.7,2.2-7.8,0l-36.8-36.8C1425,221,1424.5,219.6,1424.5,218.1z"></path>
	</g>
</g>
<g>
	<g>
		<path class="st1" d="M650.9,777.9c-1.1-0.9-1.8-2.3-1.9-3.8c-0.2-3,2.1-5.7,5.1-5.9l51.9-3.7c3-0.2,5.7,2.1,5.9,5.1
			c0.2,3-2.1,5.7-5.1,5.9l-51.9,3.7C653.4,779.3,652,778.8,650.9,777.9z"></path>
	</g>
</g>
<g>
	<circle class="st0" cx="1410" cy="10.4" r="8.8"></circle>
</g>
<g>
	<circle class="st4" cx="1277" cy="166.1" r="8.8"></circle>
</g>
<g>
	<circle class="st0" cx="1293.5" cy="319.9" r="8.8"></circle>
</g>
<g>
	<g class="st5">
		<circle class="st0" cx="1437.5" cy="140" r="18.8"></circle>
	</g>
</g>
<g>
	<g>
		<polygon class="st0" points="1312.5,7.5 1303.9,19.6 1303.9,19.6 1321.3,19.5 		"></polygon>
	</g>
</g>
<g>
	<g class="st5">
		<circle class="st0" cx="1466.3" cy="441.1" r="18.8"></circle>
	</g>
</g>
<g>
	<polygon class="st6" points="1330.1,410.1 1321.5,422.2 1321.5,422.2 1338.9,422.1 	"></polygon>
</g>
<g>
	<g>
		<polygon class="st0" points="730.6,-150.7 739.3,-162.8 739.3,-162.8 721.8,-162.7 		"></polygon>
	</g>
</g>
<g>
	<g class="st5">
		<polygon class="st0" points="1331.3,-168.4 1322.7,-156.3 1322.7,-156.3 1340.1,-156.4 		"></polygon>
	</g>
</g>
<g>
	<circle class="st0" cx="1384.7" cy="-168.4" r="8.8"></circle>
</g>
<g>
	<circle class="st13" cx="1368.2" cy="-322.2" r="8.8"></circle>
</g>
<g>
	<circle class="st14" cx="1253.7" cy="-299.7" r="8.8"></circle>
</g>
<g>
	<g class="st5">
		<circle class="st0" cx="1224.2" cy="-142.3" r="18.8"></circle>
	</g>
</g>
<g>
	<g class="st5">
		<polygon class="st0" points="1281.8,-239.9 1290.4,-252 1290.4,-252 1273,-251.9 		"></polygon>
	</g>
</g>
<g>
	<circle class="st4" cx="866.7" cy="691.7" r="8.8"></circle>
</g>
<g>
	<g>
		<polygon class="st0" points="1005.8,775.6 997.1,763.6 997.1,763.6 991.7,780.2 		"></polygon>
	</g>
</g>
<g>
	<g class="st5">
		<polygon class="st0" points="1166.7,849.3 1157.9,837.3 1157.9,837.3 1152.5,853.8 		"></polygon>
	</g>
</g>
<g>
	<circle class="st14" cx="1315.8" cy="817.3" r="8.8"></circle>
</g>
<g>
	<g class="st5">
		<circle class="st0" cx="1175.9" cy="739.4" r="18.8"></circle>
	</g>
</g>
<g>
	<g class="st5">
		<polygon class="st0" points="1250.2,825 1259,837 1259,837 1264.4,820.4 		"></polygon>
	</g>
</g>
<g>
	<g>
		<polygon class="st0" points="1253.6,-447.5 1245,-435.4 1245,-435.4 1262.4,-435.5 		"></polygon>
	</g>
</g>
<g>
	<circle class="st14" cx="570.3" cy="759.6" r="8.8"></circle>
</g>
<g>
	<g>
		<polygon class="st0" points="570.2,671.7 561.6,683.8 561.6,683.8 579,683.7 		"></polygon>
	</g>
</g>
<g>
	<path class="st15" d="M1355.6-290.4c1.6-0.2,3.2,0.2,4.5,1.3c2.5,2.1,2.8,5.8,0.7,8.3c-1.7,2-2.5,4.6-2.3,7.2
		c0.2,2.6,1.4,5,3.5,6.7c2,1.7,4.6,2.5,7.2,2.3c2.6-0.2,5-1.4,6.7-3.5l0,0l0,0c0.2-0.2,0.3-0.3,0.5-0.5c3.7-3.8,8.5-6.1,13.8-6.6
		c5.8-0.5,11.4,1.3,15.8,5.1c4.4,3.7,7.1,9,7.6,14.7c0.4,5.3-1.1,10.5-4.2,14.7c-0.1,0.2-0.3,0.4-0.4,0.6c-1.7,2-2.5,4.6-2.3,7.2
		c0.2,2.6,1.4,5,3.5,6.7c2,1.7,4.6,2.5,7.2,2.3c2.6-0.2,5-1.4,6.7-3.5c0.2-0.2,0.3-0.4,0.5-0.5c7.8-8.2,20.8-8.9,29.6-1.5
		c9.1,7.7,10.2,21.4,2.5,30.5c-2.1,2.5-5.8,2.8-8.3,0.7s-2.8-5.8-0.7-8.3c3.5-4.2,3-10.4-1.1-13.9c-2-1.7-4.6-2.5-7.2-2.3
		c-2.6,0.2-5,1.4-6.7,3.5l0,0l0,0c-0.2,0.2-0.3,0.3-0.5,0.5c-3.7,3.8-8.5,6.1-13.8,6.6c-5.8,0.5-11.4-1.3-15.8-5.1
		c-4.4-3.7-7.1-9-7.6-14.7c-0.4-5.3,1.1-10.5,4.2-14.7c0.1-0.2,0.3-0.4,0.4-0.6c1.7-2,2.5-4.6,2.3-7.2c-0.2-2.6-1.4-5-3.5-6.7
		c-2-1.7-4.6-2.5-7.2-2.3c-2.6,0.2-5,1.4-6.7,3.5c-0.2,0.2-0.3,0.3-0.5,0.5c-3.7,3.8-8.5,6.1-13.8,6.6c-5.8,0.5-11.4-1.3-15.8-5.1
		c-4.4-3.7-7.1-9-7.6-14.7c-0.5-5.8,1.3-11.4,5.1-15.8C1352.9-289.6,1354.2-290.2,1355.6-290.4z"></path>
</g>
<g>
	<path class="st0" d="M1440,786.1h-31.2c-0.8,0-1.3,0.6-1.3,1.3v7.6c0,0.7,0.6,1.3,1.3,1.3h10v37.5c0,0.7,0.6,1.3,1.3,1.3h8.4
		c0.7,0,1.3-0.6,1.3-1.3v-37.5h10c0.8,0,1.3-0.6,1.3-1.3v-7.6C1441.3,786.8,1440.8,786.1,1440,786.1z"></path>
	<path class="st0" d="M1467.4,832.4l-1.4-6.1c-0.2-0.8-1-1.2-1.8-1c-0.8,0.2-2.9,0.7-4,0.7c-1.4,0-2.2-0.7-2.2-2.2v-11.3h6.5
		c0.8,0,1.5-0.7,1.5-1.5v-6.5c0-0.9-0.7-1.5-1.5-1.5h-6.5v-9c0-0.8-0.6-1.5-1.4-1.5h-7.7c-0.8,0-1.5,0.7-1.5,1.5v9h-2.7
		c-0.8,0-1.4,0.6-1.4,1.5v6.5c0,0.8,0.6,1.5,1.4,1.5h2.7v12.3c0,7.4,3.6,11.3,9.8,11.3c3.4,0,7.1-0.9,9.3-1.8
		C1467.3,833.8,1467.6,833.4,1467.4,832.4z"></path>
</g>
<g>
	<g>
		<polygon class="st2" points="532.8,199.1 463.3,139 463.3,139 453.9,246.2 		"></polygon>
	</g>
</g>
<g>
	<g>
		<polygon class="st2" points="897.4,899.8 827.9,839.7 827.9,839.7 818.4,946.9 		"></polygon>
	</g>
</g>
<g>
	<path class="st15" d="M1469.2-596.8v46.4h46.4v-46.4H1469.2z"></path>
</g>
<g>
	<path class="st1" d="M592.6,313.7c3.7,7.6,4.6,16.1,2.5,24.4c-2.3,9.3-8.2,17.1-16.4,22.1c-2.8,1.7-6.4,0.8-8.1-2
		c-1.7-2.8-0.8-6.4,2-8.1c5.5-3.3,9.5-8.6,11-14.8c1.6-6.3,0.6-12.7-2.7-18.3c-6.8-11.4-21.7-15.2-33.1-8.3c-2.8,1.7-6.4,0.8-8.1-2
		s-0.8-6.4,2-8.1c17-10.2,39.1-4.6,49.2,12.4C591.6,311.8,592.1,312.8,592.6,313.7z"></path>
</g>
<g>
	<circle class="st13" cx="593" cy="557.1" r="8.8"></circle>
</g>
<g>
	<circle class="st14" cx="478.6" cy="579.6" r="8.8"></circle>
</g>
<g>
	<g>
		<polygon class="st0" points="478.5,491.8 469.9,503.9 469.9,503.9 487.3,503.8 		"></polygon>
	</g>
</g>
<g>
	<path class="st15" d="M562.9,648.7c0.7-1.4,2-2.5,3.7-3c3.1-0.8,6.4,1,7.2,4.2c0.7,2.6,2.3,4.7,4.6,6c2.3,1.3,4.9,1.7,7.5,1
		c2.6-0.7,4.7-2.3,6-4.6c1.3-2.3,1.7-4.9,1-7.5l0,0l0,0c-0.1-0.2-0.1-0.5-0.1-0.7c-1-5.2-0.2-10.5,2.5-15.1c2.9-5,7.6-8.6,13.2-10
		c5.6-1.5,11.4-0.7,16.4,2.2c4.6,2.7,8,6.9,9.6,11.9c0.1,0.2,0.2,0.4,0.2,0.7c0.7,2.6,2.3,4.7,4.6,6s4.9,1.7,7.5,1s4.7-2.3,6-4.6
		c1.3-2.3,1.7-4.9,1-7.5c-0.1-0.2-0.1-0.5-0.1-0.7c-2.2-11.1,4.6-22.2,15.7-25.1c11.5-3,23.4,3.9,26.4,15.4c0.8,3.1-1,6.4-4.2,7.2
		c-3.1,0.8-6.4-1-7.2-4.2c-1.4-5.3-6.8-8.4-12.1-7c-2.6,0.7-4.7,2.3-6,4.6c-1.3,2.3-1.7,4.9-1,7.5l0,0l0,0c0.1,0.2,0.1,0.5,0.1,0.7
		c1,5.2,0.2,10.5-2.5,15.1c-2.9,5-7.6,8.6-13.2,10c-5.6,1.5-11.4,0.7-16.4-2.2c-4.6-2.7-8-6.9-9.6-11.9c-0.1-0.2-0.2-0.4-0.2-0.7
		c-0.7-2.6-2.3-4.7-4.6-6s-4.9-1.7-7.5-1c-2.6,0.7-4.7,2.3-6,4.6c-1.3,2.3-1.7,4.9-1,7.5c0.1,0.2,0.1,0.5,0.1,0.7
		c1,5.2,0.2,10.5-2.5,15.1c-2.9,5-7.6,8.6-13.2,10c-5.6,1.5-11.4,0.7-16.4-2.2c-5-2.9-8.6-7.6-10-13.2
		C562,651.5,562.2,650,562.9,648.7z"></path>
</g>
<g>
	<path class="st15" d="M651.6,193.3l-26.6,38l38,26.6l26.6-38L651.6,193.3z"></path>
</g>
<g>
	<circle class="st16" cx="1486.2" cy="-740.9" r="37.8"></circle>
	<circle class="st1" cx="1486.2" cy="-740.9" r="20.1"></circle>
</g>
<g>
	<polygon class="st13" points="1196.3,-712.3 1171,-756.2 1196.3,-800.2 1247.1,-800.2 1272.4,-756.2 1247.1,-712.3 	"></polygon>
</g>
<g>
	<polygon class="st13" points="422.8,794.7 397.4,750.8 422.8,706.8 473.5,706.8 498.9,750.8 473.5,794.7 	"></polygon>
</g>
<g>
	<path class="st3" d="M794.4-703.5l11.4-4.4l0,0l-28.4-73.2l-11.4,4.5L794.4-703.5z"></path>
</g>
<g>
	<path class="st3" d="M530.9,37.5l7.6-9.6l0,0l-61.6-48.5l-7.6,9.6L530.9,37.5z"></path>
</g>
<g>
	<circle class="st2" cx="476.1" cy="-693.6" r="47.9"></circle>
</g>
<g>
	<circle class="st2" cx="1485.1" cy="595.2" r="47.9"></circle>
</g>
</svg>