<svg xmlns="http://www.w3.org/2000/svg" xmlns:xlink="http://www.w3.org/1999/xlink"  viewBox="0 0 940 260" preserveAspectRatio="xMidYMid meet">
  <defs>
    <linearGradient gradientUnits="userSpaceOnUse" x1="-819.2" x2="819.2" spreadMethod="pad" gradientTransform="matrix(0.0786590576171875 0 0 0.0789031982421875 123.9 139.05)" id="gradient0">
      <stop offset="0" stop-color="#52D040"/>
      <stop offset="1" stop-color="#27B1EE"/>
    </linearGradient>
    <linearGradient gradientUnits="userSpaceOnUse" x1="-819.2" x2="819.2" spreadMethod="pad" gradientTransform="matrix(0.1565704345703125 0 0 0.1565704345703125 129.65 130)" id="gradient1">
      <stop offset="0" stop-color="#52D040"/>
      <stop offset="1" stop-color="#27B1EE"/>
    </linearGradient>
  </defs>
  <g>
    <path stroke="none" fill="#FFFFFF" d="M457.15 50.75 L490.6 50.75 490.6 210.4 457.15 210.4 457.15 50.75 M427.2 68.65 Q435.9 76.6 440.95 85.75 446.05 94.8 447.85 103.4 L415 113.75 Q413.95 108.15 409.75 101.45 405.55 94.7 397.25 89.85 388.85 84.9 375.2 84.65 364.45 84.65 354.3 89.75 344.2 94.9 337.5 105.55 330.85 116.1 330.65 132.55 330.85 147.2 337.1 157.55 343.35 168 353.55 173.35 363.7 178.85 375.65 178.85 389.1 178.65 397.6 173.8 406.1 168.85 410.6 162.2 415.15 155.4 416.65 149.6 L449.9 159.05 Q448.05 167.35 443 176.7 437.85 186.05 429 194.45 420.2 202.85 406.95 208.25 393.7 213.5 375.65 213.75 352.8 213.5 334.6 203.5 316.3 193.5 305.55 175.3 294.7 157.1 294.45 132.55 294.55 114.15 300.9 99.2 307.25 84.25 318.45 73.35 329.55 62.5 344.1 56.7 358.6 50.85 375.2 50.75 392.75 50.85 405.65 55.85 418.45 60.8 427.2 68.65 M511.8 191.55 Q506.95 181.85 506.95 170.05 L506.95 100.8 540.45 100.8 540.45 163.05 Q540.45 171.1 544.75 176.5 549.15 181.75 558.1 182 566.6 181.85 571.45 176.7 576.3 171.65 576.4 163.25 L576.4 100.8 609.9 100.8 609.9 190.8 Q609.9 198.35 610.3 203.6 L610.95 210.4 578.9 210.4 Q578.45 208.7 578.25 205.25 L577.9 199.4 Q573.4 206.5 565.3 209.65 557.15 212.9 548.65 212.9 535.3 212.75 525.9 206.95 516.65 201.25 511.8 191.55 M660.35 111.15 Q664 105.9 672.3 102.1 680.65 98.35 692.1 98.15 708 98.25 719.4 105.65 730.75 113 736.85 125.9 742.9 138.7 743 155.3 742.9 172.2 736.2 185.1 729.65 198 717.9 205.35 706.2 212.75 690.8 212.9 679.8 212.75 671.75 208.55 663.75 204.5 659.9 198 L659.9 210.4 627.5 210.4 627.5 50.75 660.35 50.75 660.35 111.15 M705.95 140.2 Q702.65 134.2 697.05 131.3 691.45 128.4 684.75 128.4 678.2 128.4 672.6 131.3 666.9 134.2 663.45 140.2 660 146.25 659.9 155.5 660 164.55 663.45 170.7 666.9 176.7 672.6 179.85 678.2 182.85 684.75 182.85 691.45 182.85 697.05 179.85 702.65 176.8 705.95 170.7 709.4 164.65 709.5 155.5 709.4 146.25 705.95 140.2 M926.65 100.05 L930.65 100.8 930.65 133.85 925.15 133 920.1 132.8 Q913.2 132.7 907.4 135.7 901.7 138.6 898.15 145.15 894.6 151.75 894.45 162.5 L894.45 210.4 861 210.4 861 100.8 893.4 100.8 893.4 115.55 Q896.3 109.55 901.35 106 906.3 102.55 911.8 101.15 917.3 99.75 921.8 99.75 L926.65 100.05 M812.05 167.45 L812.05 162.6 791.4 165.95 Q785.9 166.7 782.6 169.5 779.15 172.3 779.05 178 778.9 182.5 782.05 185.85 785.15 189.2 792.05 189.3 797.1 189.4 801.65 187.45 806.15 185.45 809.05 180.7 811.95 175.85 812.05 167.45 M824.55 103.5 Q835.2 109.3 839.95 118.9 844.8 128.4 844.7 139.8 L844.7 193.4 Q844.8 200.05 845.25 204.7 845.75 209.45 846 210.4 L815.85 210.4 815.2 206.75 Q814.75 203.75 814.75 198.15 810.45 205.15 802.6 209.3 794.85 213.4 783.85 213.5 771.8 213.4 763.4 208.8 754.9 204.15 750.5 196.6 746 189.1 746 180.25 L746 180.15 Q746.1 170.45 750.4 163.6 754.7 156.7 761.9 152.6 769.25 148.4 778.4 147.1 L804.1 143.1 Q808.5 142.5 810.35 140.45 812.2 138.5 812.05 135.6 812.05 130.75 808 127.3 803.9 123.85 796.05 123.75 787.2 123.95 782.45 128.7 777.75 133.45 777.3 139.8 L748.25 133.85 Q748.8 125.8 754.05 117.5 759.35 109.2 769.75 103.4 780.2 97.7 796.25 97.5 813.9 97.7 824.55 103.5"/>
    <path stroke="none" fill="url(#gradient0)" d="M126.1 187.75 L126.7 188.2 126.9 187.95 126.1 187.75 M169.4 91.2 L169.6 91.2 77.2 135.45 76.8 135.65 Q76 136.25 75.8 136.85 76.4 137.45 77.8 138.05 L103.05 146.1 102.65 145.9 Q117.5 149.7 119.3 162.5 L125.7 186.35 126.9 187.75 126.9 187.55 171.4 94.8 171.6 94.4 Q172.6 92.6 172.2 91 171 90.35 169.4 91.2 M184.6 80.75 L185.4 81.75 Q191.65 91 185.6 102 L185.8 101.8 141.55 194 Q138.35 203.8 125.7 203.8 L124.5 203.8 Q115.3 202.8 110.85 192.2 L110.45 191.2 103.65 166.15 103.45 165.15 Q102.45 162.5 98.65 161.5 98.45 161.5 98.25 161.3 L72.8 153.3 72.4 153.1 Q60.95 148.7 59.75 139.7 L59.55 138.45 Q59.15 127.45 69.2 121.65 L69.8 121.25 162.55 76.75 Q176 70.35 184.6 80.75"/>
    <path fill="none" stroke="url(#gradient1)" stroke-width="15" stroke-linecap="round" stroke-linejoin="round" d="M249.9 130 Q249.9 179.95 214.6 215 179.55 250.25 129.65 250.25 79.75 250.25 44.45 215 9.4 179.95 9.4 130 9.4 80.1 44.45 44.85 79.75 9.8 129.65 9.8 179.55 9.8 214.6 44.85 249.9 80.1 249.9 130"/>
  </g>
</svg>